<svg width="383" height="86" viewBox="0 0 383 86" fill="none" xmlns="http://www.w3.org/2000/svg">
<path d="M107.49 28.7227V54H102.586V28.7227H107.49ZM132.416 28.7227V32.3262H125.033V54H120.129V32.3262H112.676V28.7227H132.416ZM152.104 53.1738C151.623 53.373 151.096 53.5488 150.521 53.7012C149.959 53.8535 149.367 53.9824 148.746 54.0879C148.125 54.1934 147.492 54.2754 146.848 54.334C146.215 54.3926 145.594 54.4219 144.984 54.4219C141.902 54.4219 139.57 53.6836 137.988 52.207C136.418 50.7188 135.633 48.4453 135.633 45.3867C135.633 44.0273 135.791 42.7383 136.107 41.5195C136.424 40.3008 136.934 39.2344 137.637 38.3203C138.352 37.3945 139.283 36.6621 140.432 36.123C141.592 35.584 143.01 35.3145 144.686 35.3145C147.615 35.3145 149.801 36.0938 151.242 37.6523C152.684 39.1992 153.404 41.5664 153.404 44.7539V46.1426H140.414C140.438 46.9395 140.531 47.6426 140.695 48.252C140.859 48.8613 141.129 49.377 141.504 49.7988C141.891 50.209 142.395 50.5254 143.016 50.748C143.637 50.959 144.416 51.0645 145.354 51.0645C146.174 51.0645 147.059 50.9648 148.008 50.7656C148.957 50.5547 149.947 50.2559 150.979 49.8691L152.104 53.1738ZM148.588 43.0137C148.506 40.1191 147.205 38.6719 144.686 38.6719C143.385 38.6719 142.395 39.0469 141.715 39.7969C141.047 40.5469 140.637 41.6191 140.484 43.0137H148.588ZM158.432 36.6152C158.865 36.4395 159.357 36.2754 159.908 36.123C160.471 35.9707 161.062 35.8359 161.684 35.7188C162.316 35.5898 162.967 35.4902 163.635 35.4199C164.314 35.3496 165 35.3145 165.691 35.3145C166.664 35.3145 167.572 35.3906 168.416 35.543C169.271 35.6953 169.98 35.9473 170.543 36.2988C171.105 36.6504 171.545 37.1309 171.861 37.7402C172.178 38.3379 172.336 39.0938 172.336 40.0078V47.1445C172.336 47.9648 172.342 48.6973 172.354 49.3418C172.365 49.9746 172.389 50.5957 172.424 51.2051C172.447 51.4277 172.471 51.6328 172.494 51.8203C172.518 51.9961 172.541 52.1719 172.564 52.3477C172.6 52.5117 172.635 52.6875 172.67 52.875C172.717 53.0625 172.77 53.2676 172.828 53.4902C172.102 53.6543 171.375 53.8125 170.648 53.9648C169.934 54.1172 169.207 54.2637 168.469 54.4043C168.34 54.0762 168.234 53.7422 168.152 53.4023C168.082 53.0508 168.018 52.6523 167.959 52.207H167.695C167.285 52.6289 166.875 52.9805 166.465 53.2617C166.055 53.543 165.627 53.7715 165.182 53.9473C164.736 54.123 164.273 54.2461 163.793 54.3164C163.312 54.3867 162.809 54.4219 162.281 54.4219C161.473 54.4219 160.723 54.3223 160.031 54.123C159.34 53.9355 158.736 53.6426 158.221 53.2441C157.717 52.8457 157.318 52.3418 157.025 51.7324C156.744 51.1113 156.604 50.3848 156.604 49.5527C156.604 48.8496 156.674 48.2227 156.814 47.6719C156.967 47.1211 157.178 46.6289 157.447 46.1953C157.717 45.7617 158.039 45.3809 158.414 45.0527C158.789 44.7246 159.205 44.4375 159.662 44.1914C160.576 43.6992 161.596 43.3652 162.721 43.1895C163.846 43.002 164.994 42.9082 166.166 42.9082H167.678V40.623C167.678 40.1895 167.607 39.8496 167.467 39.6035C167.338 39.3457 167.156 39.1523 166.922 39.0234C166.699 38.8945 166.436 38.8125 166.131 38.7773C165.826 38.7305 165.498 38.707 165.146 38.707C164.197 38.707 163.236 38.8301 162.264 39.0762C161.303 39.3105 160.383 39.6035 159.504 39.9551L158.432 36.6152ZM167.678 45.4922H167.326C166.494 45.5039 165.697 45.5684 164.936 45.6855C164.186 45.791 163.523 45.9785 162.949 46.248C162.375 46.5176 161.912 46.875 161.561 47.3203C161.221 47.7539 161.051 48.3047 161.051 48.9727C161.051 49.7109 161.262 50.2793 161.684 50.6777C162.117 51.0762 162.721 51.2754 163.494 51.2754C163.857 51.2754 164.232 51.2285 164.619 51.1348C165.006 51.0293 165.387 50.8887 165.762 50.7129C166.137 50.5254 166.488 50.2969 166.816 50.0273C167.145 49.7578 167.432 49.4473 167.678 49.0957V45.4922ZM194.713 39.6387C195.1 38.8887 195.498 38.2441 195.908 37.7051C196.318 37.1543 196.758 36.7031 197.227 36.3516C197.707 36 198.223 35.7422 198.773 35.5781C199.336 35.4023 199.969 35.3145 200.672 35.3145C202.137 35.3145 203.285 35.6602 204.117 36.3516C204.961 37.0312 205.559 38.0273 205.91 39.3398C206.203 40.4414 206.35 41.7656 206.35 43.3125V54H201.533V41.9414C201.533 41.4844 201.492 41.0859 201.41 40.7461C201.34 40.3945 201.234 40.0957 201.094 39.8496C200.895 39.4863 200.625 39.2285 200.285 39.0762C199.957 38.9121 199.57 38.8301 199.125 38.8301C198.691 38.8301 198.275 38.9473 197.877 39.1816C197.479 39.4043 197.098 39.6914 196.734 40.043C196.383 40.3945 196.055 40.7871 195.75 41.2207C195.445 41.6543 195.17 42.0762 194.924 42.4863C194.936 42.6152 194.941 42.7441 194.941 42.873C194.941 43.002 194.941 43.1367 194.941 43.2773V54H190.125V41.9414C190.125 41.4844 190.084 41.0859 190.002 40.7461C189.932 40.3945 189.826 40.0957 189.686 39.8496C189.486 39.4863 189.217 39.2285 188.877 39.0762C188.549 38.9121 188.162 38.8301 187.717 38.8301C187.295 38.8301 186.891 38.9473 186.504 39.1816C186.117 39.4043 185.748 39.6914 185.396 40.043C185.045 40.3945 184.717 40.7871 184.412 41.2207C184.107 41.6543 183.832 42.0762 183.586 42.4863V54H178.77V42.7324C178.77 42.0527 178.764 41.4199 178.752 40.834C178.74 40.2363 178.717 39.6797 178.682 39.1641C178.646 38.6367 178.594 38.1387 178.523 37.6699C178.453 37.2012 178.359 36.7441 178.242 36.2988C179.004 36.0996 179.76 35.9238 180.51 35.7715C181.271 35.6074 182.039 35.4551 182.812 35.3145C182.895 35.5605 182.971 35.8066 183.041 36.0527C183.111 36.2871 183.17 36.5449 183.217 36.8262C183.264 37.0957 183.305 37.3945 183.34 37.7227C183.375 38.0508 183.41 38.4258 183.445 38.8477H183.674C184.049 38.2852 184.424 37.7871 184.799 37.3535C185.186 36.9082 185.596 36.5391 186.029 36.2461C186.463 35.9414 186.943 35.7129 187.471 35.5605C187.998 35.3965 188.596 35.3145 189.264 35.3145C190.775 35.3145 191.953 35.6836 192.797 36.4219C193.652 37.1602 194.244 38.2324 194.572 39.6387H194.713ZM239.748 53.2969C238.705 53.6367 237.557 53.9062 236.303 54.1055C235.061 54.3164 233.795 54.4219 232.506 54.4219C230.314 54.4219 228.457 54.1699 226.934 53.666C225.422 53.1504 224.191 52.3711 223.242 51.3281C222.293 50.2734 221.607 48.9551 221.186 47.373C220.764 45.7793 220.553 43.9043 220.553 41.748C220.553 39.498 220.758 37.5352 221.168 35.8594C221.59 34.1836 222.252 32.7891 223.154 31.6758C224.057 30.5625 225.217 29.7305 226.635 29.1797C228.064 28.6172 229.793 28.3359 231.82 28.3359C232.535 28.3359 233.238 28.3711 233.93 28.4414C234.633 28.5117 235.295 28.6055 235.916 28.7227C236.549 28.8398 237.135 28.9746 237.674 29.127C238.225 29.2793 238.711 29.4375 239.133 29.6016L237.973 33.1348C237.141 32.8301 236.25 32.5664 235.301 32.3438C234.363 32.1094 233.373 31.9922 232.33 31.9922C231.076 31.9922 230.016 32.1797 229.148 32.5547C228.281 32.9297 227.578 33.498 227.039 34.2598C226.512 35.0215 226.131 35.9824 225.896 37.1426C225.662 38.3027 225.545 39.6621 225.545 41.2207C225.545 42.8848 225.674 44.3203 225.932 45.5273C226.189 46.7227 226.605 47.7129 227.18 48.498C227.754 49.2715 228.504 49.8457 229.43 50.2207C230.367 50.584 231.504 50.7656 232.84 50.7656C233.859 50.7656 234.879 50.6719 235.898 50.4844C236.93 50.2969 237.885 50.0566 238.764 49.7637L239.748 53.2969ZM251.912 35.3145C253.447 35.3145 254.777 35.5547 255.902 36.0352C257.027 36.5156 257.953 37.1836 258.68 38.0391C259.418 38.8828 259.963 39.8906 260.314 41.0625C260.678 42.2227 260.859 43.4883 260.859 44.8594C260.859 46.2305 260.678 47.502 260.314 48.6738C259.963 49.8457 259.418 50.8594 258.68 51.7148C257.953 52.5586 257.027 53.2207 255.902 53.7012C254.777 54.1816 253.447 54.4219 251.912 54.4219C250.377 54.4219 249.047 54.1816 247.922 53.7012C246.797 53.2207 245.865 52.5586 245.127 51.7148C244.4 50.8594 243.855 49.8457 243.492 48.6738C243.141 47.502 242.965 46.2305 242.965 44.8594C242.965 43.4883 243.141 42.2227 243.492 41.0625C243.855 39.8906 244.4 38.8828 245.127 38.0391C245.865 37.1836 246.797 36.5156 247.922 36.0352C249.047 35.5547 250.377 35.3145 251.912 35.3145ZM251.912 38.7598C251.068 38.7598 250.377 38.918 249.838 39.2344C249.299 39.5508 248.877 39.9844 248.572 40.5352C248.268 41.0859 248.057 41.7363 247.939 42.4863C247.834 43.2246 247.781 44.0156 247.781 44.8594C247.781 45.7148 247.834 46.5176 247.939 47.2676C248.057 48.0059 248.268 48.6504 248.572 49.2012C248.877 49.752 249.299 50.1855 249.838 50.502C250.377 50.8184 251.068 50.9766 251.912 50.9766C252.756 50.9766 253.447 50.8184 253.986 50.502C254.525 50.1855 254.947 49.752 255.252 49.2012C255.557 48.6504 255.762 48.0059 255.867 47.2676C255.984 46.5176 256.043 45.7148 256.043 44.8594C256.043 44.0156 255.984 43.2246 255.867 42.4863C255.762 41.7363 255.557 41.0859 255.252 40.5352C254.947 39.9844 254.525 39.5508 253.986 39.2344C253.447 38.918 252.756 38.7598 251.912 38.7598ZM282.041 39.6387C282.428 38.8887 282.826 38.2441 283.236 37.7051C283.646 37.1543 284.086 36.7031 284.555 36.3516C285.035 36 285.551 35.7422 286.102 35.5781C286.664 35.4023 287.297 35.3145 288 35.3145C289.465 35.3145 290.613 35.6602 291.445 36.3516C292.289 37.0312 292.887 38.0273 293.238 39.3398C293.531 40.4414 293.678 41.7656 293.678 43.3125V54H288.861V41.9414C288.861 41.4844 288.82 41.0859 288.738 40.7461C288.668 40.3945 288.562 40.0957 288.422 39.8496C288.223 39.4863 287.953 39.2285 287.613 39.0762C287.285 38.9121 286.898 38.8301 286.453 38.8301C286.02 38.8301 285.604 38.9473 285.205 39.1816C284.807 39.4043 284.426 39.6914 284.062 40.043C283.711 40.3945 283.383 40.7871 283.078 41.2207C282.773 41.6543 282.498 42.0762 282.252 42.4863C282.264 42.6152 282.27 42.7441 282.27 42.873C282.27 43.002 282.27 43.1367 282.27 43.2773V54H277.453V41.9414C277.453 41.4844 277.412 41.0859 277.33 40.7461C277.26 40.3945 277.154 40.0957 277.014 39.8496C276.814 39.4863 276.545 39.2285 276.205 39.0762C275.877 38.9121 275.49 38.8301 275.045 38.8301C274.623 38.8301 274.219 38.9473 273.832 39.1816C273.445 39.4043 273.076 39.6914 272.725 40.043C272.373 40.3945 272.045 40.7871 271.74 41.2207C271.436 41.6543 271.16 42.0762 270.914 42.4863V54H266.098V42.7324C266.098 42.0527 266.092 41.4199 266.08 40.834C266.068 40.2363 266.045 39.6797 266.01 39.1641C265.975 38.6367 265.922 38.1387 265.852 37.6699C265.781 37.2012 265.688 36.7441 265.57 36.2988C266.332 36.0996 267.088 35.9238 267.838 35.7715C268.6 35.6074 269.367 35.4551 270.141 35.3145C270.223 35.5605 270.299 35.8066 270.369 36.0527C270.439 36.2871 270.498 36.5449 270.545 36.8262C270.592 37.0957 270.633 37.3945 270.668 37.7227C270.703 38.0508 270.738 38.4258 270.773 38.8477H271.002C271.377 38.2852 271.752 37.7871 272.127 37.3535C272.514 36.9082 272.924 36.5391 273.357 36.2461C273.791 35.9414 274.271 35.7129 274.799 35.5605C275.326 35.3965 275.924 35.3145 276.592 35.3145C278.104 35.3145 279.281 35.6836 280.125 36.4219C280.98 37.1602 281.572 38.2324 281.9 39.6387H282.041ZM303.416 38.6543C304.775 36.4277 306.697 35.3145 309.182 35.3145C310.412 35.3145 311.449 35.5547 312.293 36.0352C313.137 36.5156 313.816 37.166 314.332 37.9863C314.859 38.7949 315.234 39.7383 315.457 40.8164C315.691 41.8828 315.809 43.0137 315.809 44.209C315.809 45.8965 315.58 47.3789 315.123 48.6562C314.678 49.9219 314.045 50.9824 313.225 51.8379C312.404 52.6934 311.42 53.3379 310.271 53.7715C309.135 54.2051 307.875 54.4219 306.492 54.4219C305.988 54.4219 305.496 54.3984 305.016 54.3516C304.547 54.3047 304.072 54.2461 303.592 54.1758V61.0488H298.793V41.6953C298.793 41.1445 298.787 40.6289 298.775 40.1484C298.775 39.668 298.758 39.2109 298.723 38.7773C298.688 38.3438 298.635 37.9219 298.564 37.5117C298.506 37.0898 298.418 36.668 298.301 36.2461C299.051 36.0352 299.76 35.8594 300.428 35.7188C301.096 35.5781 301.816 35.4434 302.59 35.3145C302.672 35.5605 302.748 35.7949 302.818 36.0176C302.889 36.2402 302.947 36.4805 302.994 36.7383C303.053 36.9961 303.1 37.2773 303.135 37.582C303.17 37.8867 303.199 38.2441 303.223 38.6543H303.416ZM303.539 50.5547C304.477 50.7891 305.35 50.9062 306.158 50.9062C306.85 50.9062 307.488 50.8125 308.074 50.625C308.672 50.4375 309.182 50.1328 309.604 49.7109C310.037 49.2891 310.377 48.7441 310.623 48.0762C310.869 47.4082 310.992 46.5938 310.992 45.6328C310.992 44.6367 310.951 43.7227 310.869 42.8906C310.787 42.0586 310.623 41.3438 310.377 40.7461C310.131 40.1367 309.779 39.668 309.322 39.3398C308.865 39 308.262 38.8301 307.512 38.8301C306.961 38.8301 306.475 38.9414 306.053 39.1641C305.643 39.3867 305.268 39.6973 304.928 40.0957C304.67 40.377 304.43 40.6992 304.207 41.0625C303.984 41.4141 303.762 41.7949 303.539 42.2051V50.5547ZM320.678 36.6152C321.111 36.4395 321.604 36.2754 322.154 36.123C322.717 35.9707 323.309 35.8359 323.93 35.7188C324.562 35.5898 325.213 35.4902 325.881 35.4199C326.561 35.3496 327.246 35.3145 327.938 35.3145C328.91 35.3145 329.818 35.3906 330.662 35.543C331.518 35.6953 332.227 35.9473 332.789 36.2988C333.352 36.6504 333.791 37.1309 334.107 37.7402C334.424 38.3379 334.582 39.0938 334.582 40.0078V47.1445C334.582 47.9648 334.588 48.6973 334.6 49.3418C334.611 49.9746 334.635 50.5957 334.67 51.2051C334.693 51.4277 334.717 51.6328 334.74 51.8203C334.764 51.9961 334.787 52.1719 334.811 52.3477C334.846 52.5117 334.881 52.6875 334.916 52.875C334.963 53.0625 335.016 53.2676 335.074 53.4902C334.348 53.6543 333.621 53.8125 332.895 53.9648C332.18 54.1172 331.453 54.2637 330.715 54.4043C330.586 54.0762 330.48 53.7422 330.398 53.4023C330.328 53.0508 330.264 52.6523 330.205 52.207H329.941C329.531 52.6289 329.121 52.9805 328.711 53.2617C328.301 53.543 327.873 53.7715 327.428 53.9473C326.982 54.123 326.52 54.2461 326.039 54.3164C325.559 54.3867 325.055 54.4219 324.527 54.4219C323.719 54.4219 322.969 54.3223 322.277 54.123C321.586 53.9355 320.982 53.6426 320.467 53.2441C319.963 52.8457 319.564 52.3418 319.271 51.7324C318.99 51.1113 318.85 50.3848 318.85 49.5527C318.85 48.8496 318.92 48.2227 319.061 47.6719C319.213 47.1211 319.424 46.6289 319.693 46.1953C319.963 45.7617 320.285 45.3809 320.66 45.0527C321.035 44.7246 321.451 44.4375 321.908 44.1914C322.822 43.6992 323.842 43.3652 324.967 43.1895C326.092 43.002 327.24 42.9082 328.412 42.9082H329.924V40.623C329.924 40.1895 329.854 39.8496 329.713 39.6035C329.584 39.3457 329.402 39.1523 329.168 39.0234C328.945 38.8945 328.682 38.8125 328.377 38.7773C328.072 38.7305 327.744 38.707 327.393 38.707C326.443 38.707 325.482 38.8301 324.51 39.0762C323.549 39.3105 322.629 39.6035 321.75 39.9551L320.678 36.6152ZM329.924 45.4922H329.572C328.74 45.5039 327.943 45.5684 327.182 45.6855C326.432 45.791 325.77 45.9785 325.195 46.248C324.621 46.5176 324.158 46.875 323.807 47.3203C323.467 47.7539 323.297 48.3047 323.297 48.9727C323.297 49.7109 323.508 50.2793 323.93 50.6777C324.363 51.0762 324.967 51.2754 325.74 51.2754C326.104 51.2754 326.479 51.2285 326.865 51.1348C327.252 51.0293 327.633 50.8887 328.008 50.7129C328.383 50.5254 328.734 50.2969 329.062 50.0273C329.391 49.7578 329.678 49.4473 329.924 49.0957V45.4922ZM345.34 38.8477C345.727 38.2617 346.125 37.752 346.535 37.3184C346.957 36.873 347.402 36.5039 347.871 36.2109C348.352 35.9062 348.873 35.6836 349.436 35.543C350.01 35.3906 350.643 35.3145 351.334 35.3145C352.107 35.3145 352.793 35.4023 353.391 35.5781C353.988 35.7422 354.504 35.9883 354.938 36.3164C355.371 36.6328 355.734 37.0312 356.027 37.5117C356.332 37.9805 356.572 38.5137 356.748 39.1113C356.912 39.709 357.029 40.3594 357.1 41.0625C357.182 41.7539 357.223 42.5039 357.223 43.3125V54H352.406V41.9238C352.406 40.916 352.172 40.1484 351.703 39.6211C351.246 39.0938 350.619 38.8301 349.822 38.8301C349.377 38.8301 348.938 38.9355 348.504 39.1465C348.082 39.3574 347.672 39.6387 347.273 39.9902C346.875 40.3301 346.506 40.7168 346.166 41.1504C345.826 41.584 345.521 42.0234 345.252 42.4688V54H340.436V42.7324C340.436 41.7832 340.424 40.9922 340.4 40.3594C340.389 39.7148 340.359 39.1465 340.312 38.6543C340.289 38.4082 340.266 38.1914 340.242 38.0039C340.219 37.8164 340.189 37.6348 340.154 37.459C340.131 37.2832 340.096 37.1074 340.049 36.9316C340.014 36.7441 339.967 36.5332 339.908 36.2988C340.67 36.0996 341.426 35.9238 342.176 35.7715C342.938 35.6074 343.705 35.4551 344.479 35.3145C344.561 35.5605 344.637 35.8066 344.707 36.0527C344.777 36.2871 344.836 36.5449 344.883 36.8262C344.93 37.0957 344.971 37.3945 345.006 37.7227C345.041 38.0508 345.076 38.4258 345.111 38.8477H345.34ZM378.967 35.7188V53.8594C378.967 55.2305 378.744 56.3906 378.299 57.3398C377.865 58.3008 377.244 59.0801 376.436 59.6777C375.639 60.2754 374.678 60.709 373.553 60.9785C372.439 61.248 371.209 61.3828 369.861 61.3828C368.818 61.3828 367.758 61.2891 366.68 61.1016C365.613 60.9258 364.623 60.6562 363.709 60.293C363.955 59.707 364.207 59.1328 364.465 58.5703C364.723 58.0078 364.986 57.4453 365.256 56.8828C366.1 57.1523 366.955 57.3809 367.822 57.5684C368.689 57.7676 369.527 57.8672 370.336 57.8672C370.57 57.8672 370.822 57.8555 371.092 57.832C371.373 57.8203 371.654 57.7793 371.936 57.709C372.217 57.6387 372.492 57.5273 372.762 57.375C373.031 57.2344 373.266 57.0352 373.465 56.7773C373.676 56.5312 373.846 56.2148 373.975 55.8281C374.104 55.4531 374.174 54.9961 374.186 54.457V50.8887H374.027C373.641 51.4746 373.236 51.9902 372.814 52.4355C372.404 52.8691 371.959 53.2383 371.479 53.543C370.998 53.8359 370.471 54.0527 369.896 54.1934C369.322 54.3457 368.684 54.4219 367.98 54.4219C366.832 54.4219 365.883 54.2402 365.133 53.877C364.383 53.5137 363.779 52.9922 363.322 52.3125C362.877 51.6094 362.561 50.7656 362.373 49.7812C362.186 48.7969 362.092 47.6777 362.092 46.4238V35.7188H366.908V47.8125C366.908 48.8203 367.143 49.5879 367.611 50.1152C368.08 50.6426 368.725 50.9062 369.545 50.9062C369.99 50.9062 370.424 50.8008 370.846 50.5898C371.279 50.3789 371.695 50.1035 372.094 49.7637C372.492 49.4238 372.861 49.0371 373.201 48.6035C373.541 48.1582 373.846 47.7129 374.115 47.2676V35.7188H378.967Z" fill="white"/>
<g clip-path="url(#clip0)">
<path d="M18.3513 62.7881C18.2351 54.0837 23.6941 47.1201 25.7847 43.4062C27.8754 39.6923 40.5354 28.3185 40.5354 28.3185L30.4306 35.9784L31.8244 34.4696L39.2578 26.4615L32.6374 30.0594L39.9547 23.9082C39.9547 23.9082 42.9745 20.8907 39.9547 19.9622C36.9348 19.0337 28.1077 22.3995 28.1077 22.3995C28.1077 22.3995 33.4504 22.7476 31.1275 23.3279C28.8045 23.9082 6.3881 36.4427 2.67139 42.3617C-1.16147 48.2807 0.232294 59.4224 0.232294 59.4224C-0.46459 51.2983 8.24646 46.4238 8.24646 46.4238C8.24646 46.4238 6.27195 55.4764 7.66572 64.6451C9.05949 73.8138 27.1785 78.5722 27.1785 78.5722C27.1785 78.5722 18.4674 71.3765 18.3513 62.7881Z" fill="#D1C661"/>
<path d="M47.272 17.7571C48.5496 21.587 48.5496 21.587 48.5496 21.587L51.1048 18.4534C51.1048 18.4534 49.5949 13.9271 47.9688 13.9271C46.3428 13.9271 44.949 15.0877 44.8329 15.668C44.7167 15.668 45.9943 14.0432 47.272 17.7571Z" fill="#D1C661"/>
<path d="M39.7224 50.2537C38.0963 49.0931 35.0765 48.5128 34.9603 47.1201C34.8442 46.0756 36.3541 45.1471 37.7479 44.5668C38.0963 44.4507 39.6062 43.1741 39.7224 42.7099C39.8385 41.5493 39.4901 40.1565 39.4901 40.1565C39.4901 40.1565 38.677 38.1835 38.0963 37.0229C37.5156 35.8624 39.4901 33.8893 39.4901 33.8893C11.1501 55.4764 20.6742 70.448 27.2946 76.7152C27.8753 77.1795 30.1983 78.6883 31.2436 78.9204C34.6119 79.6167 39.8385 79.9649 39.8385 79.9649H50.9887C50.9887 79.9649 51.5694 79.8488 51.4533 73.2335C51.3371 66.6181 45.5297 62.6721 45.5297 62.6721C45.5297 62.6721 36.9348 60.2348 44.6006 61.0472C52.2663 61.8596 54.2408 78.224 54.2408 78.224C54.2408 78.224 55.2861 73.1174 51.6855 63.3684C48.2011 53.3873 41.3484 51.2982 39.7224 50.2537Z" fill="#D1C661"/>
<path d="M76.6572 53.6195C75.6119 54.0837 74.4504 54.3158 73.4051 54.4319C72.9405 54.4319 72.4759 54.5479 72.0113 54.5479C70.2691 54.664 67.83 53.8516 66.6686 53.0392C66.3201 52.807 66.0878 52.691 65.7394 52.4589C65.5071 52.3428 64.694 51.5304 64.4618 51.2983C63.7649 49.9056 63.881 47.9325 63.881 47.9325L62.0227 45.8435L61.6742 45.7274C61.6742 45.7274 61.3258 45.8435 61.0935 45.9595C60.9773 46.0756 60.745 46.0756 60.6289 46.1917C56.796 47.4683 52.2663 44.3347 50.9887 42.4778C49.711 40.6208 51.3371 36.6748 52.2663 35.166C53.1955 33.6572 55.7507 34.2375 56.0991 32.6127C56.4476 30.9879 52.2663 28.2025 52.2663 28.2025C52.2663 28.2025 54.1246 30.9879 50.9887 32.7288C47.8527 34.4697 45.6459 37.9514 44.6006 40.8529C43.5552 43.7544 42.5099 45.8435 40.187 46.4238C37.864 47.0041 38.4448 47.7004 44.6006 49.9056C50.8725 52.1107 56.2153 76.135 56.5637 73.6977C57.0283 71.2605 57.6091 63.3685 59.6997 64.6451C61.3258 65.5736 64.694 74.278 66.3201 78.8043C66.9008 80.3131 67.1331 82.7504 67.017 84.027C66.7847 86.6964 66.7847 89.1336 68.2946 78.8043C70.5014 63.6006 61.9065 52.9231 61.9065 52.9231C61.9065 52.9231 61.0935 52.2267 62.7195 51.9946C64.3456 51.7625 66.7847 56.8691 70.966 57.9137C75.1473 58.8421 79.9093 52.3428 76.6572 53.6195Z" fill="#D1C661"/>
<path d="M18.119 27.274C18.5836 27.0418 19.1643 26.8097 19.8612 26.5776C22.1841 25.6491 24.6232 24.8367 24.8555 24.7206C27.9915 23.7922 24.9717 22.2834 24.9717 22.2834C24.9717 22.2834 28.9207 19.8462 33.2181 19.0337C33.5666 18.9177 39.1416 18.2213 40.187 18.1053C40.6516 18.1053 41 18.1053 41.4646 18.1053C42.3938 18.2213 42.3938 16.8286 42.2776 15.9001C42.1615 15.4359 42.2776 14.5074 42.7422 13.8111C43.3229 12.8826 44.3683 11.8381 45.762 11.8381C48.3173 11.722 49.7111 12.5344 51.5694 15.2038C53.4278 17.8731 55.4023 18.4534 55.4023 18.4534V11.8381C55.4023 11.8381 55.0538 10.5614 56.2153 10.6775C57.3768 10.7935 59.3513 12.7665 59.3513 12.7665V9.28475C59.3513 9.28475 59.0028 6.61539 60.6289 7.89204C62.255 9.16869 63.4164 18.5695 63.4164 18.5695V13.2308C63.4164 13.2308 63.6487 11.2578 63.7649 10.3293C63.9972 8.35628 63.5326 4.99055 58.5382 3.7139C51.3371 1.85695 39.8385 1.85695 34.2635 2.55331C30.4306 3.1336 26.2493 2.08907 23.9263 1.16059C23.4618 0.928475 22.9972 0.696356 22.6487 0.464238C22.6487 0.464238 22.5326 0.464238 22.5326 0.348178C21.9518 0.232119 21.8357 0 21.8357 0C21.8357 0 22.1841 0.696356 22.5326 1.27665C22.6487 1.50877 22.9972 2.08907 23.1133 2.08907C23.3456 2.32119 23.8102 2.78543 23.8102 2.78543C24.9717 3.94602 26.5977 5.10661 26.5977 5.10661L30.1983 7.19568C30.1983 7.19568 25.6686 9.63293 22.7649 9.98111C19.8612 10.3293 19.8612 10.3293 19.8612 10.3293L28.9207 12.1862L31.2436 11.9541C31.2436 11.9541 31.5921 12.4184 29.2691 13.2308C26.9462 14.1592 11.3824 13.2308 10.221 13.2308C9.05949 13.2308 18.119 17.641 18.119 17.641C18.119 17.641 15.2153 19.3819 12.3116 21.2389C11.7309 21.587 8.13031 23.7922 7.54957 24.6046C6.50425 26.1134 6.96884 27.7382 7.20113 27.9703C7.89802 28.6667 8.47875 29.0148 8.47875 29.0148L2.67139 35.166C2.67139 35.166 11.6147 30.2915 18.119 27.274Z" fill="#D1C661"/>
<path d="M70.966 43.4062C67.2493 42.2456 67.7139 41.5493 66.4363 41.3172C65.0425 40.969 62.9518 42.2456 62.9518 43.5223C62.9518 44.799 63.6487 44.915 63.6487 44.915H72.4759L72.1275 44.3347C72.1275 44.3347 71.8952 44.1026 71.6629 43.8705C71.5467 43.6384 71.0822 43.4062 70.966 43.4062Z" fill="#D1C661"/>
<path d="M70.0368 35.166C69.2238 34.1214 70.8499 31.2199 70.8499 31.2199C70.8499 31.2199 69.9207 30.7557 66.4363 34.0054C63.068 37.255 65.7394 39.9244 65.7394 39.9244C66.0878 41.4332 69.3399 41.4332 70.966 41.3171C71.5467 41.3171 72.1275 41.2011 72.4759 40.9689C73.0567 40.7368 73.8697 40.3886 73.1728 40.3886C72.1275 40.3886 68.9915 38.8799 68.9915 38.8799C68.9915 38.8799 68.9915 38.1835 70.153 38.6477C71.3144 39.112 74.6827 38.6477 74.6827 38.6477C74.6827 38.6477 74.6827 38.6477 73.8697 38.1835C73.1728 37.6032 70.8499 36.2105 70.0368 35.166Z" fill="#D1C661"/>
<path d="M81.6516 34.4697L79.4448 33.0769L79.0963 34.5857L76.0765 32.7288C76.0765 32.7288 76.0765 34.0054 77.1218 35.0499C77.8187 35.8624 77.4703 38.0675 77.1218 39.2281C77.0057 39.6923 76.7734 40.1566 76.5411 40.3887C75.728 41.085 73.8697 42.7099 73.6374 43.5223C73.289 44.6829 72.9405 46.4238 74.3343 46.7719C75.2635 47.0041 76.1926 46.3077 76.6572 45.9595C76.8895 45.7274 77.1218 44.6829 77.1218 44.6829L77.7026 41.4332C77.7026 41.4332 78.1671 39.3441 79.4448 38.4157C80.4901 37.7193 81.4193 36.4427 81.7677 35.8624C81.8839 35.7463 81.8839 35.3981 81.8839 35.3981V34.8178L81.6516 34.4697Z" fill="#D1C661"/>
<path d="M64.8102 23.444C64.8102 23.444 59.0028 24.7206 58.4221 24.9528H64.8102C64.8102 24.9528 64.5779 27.39 67.2493 27.2739C69.9207 27.1579 70.8499 25.5331 70.8499 25.5331C70.8499 25.5331 68.5269 21.471 66.9008 21.587C65.7394 21.7031 66.3201 22.0513 66.7847 22.1673C67.017 22.2834 67.2493 22.3994 67.3654 22.5155C67.83 22.9797 68.7592 24.2564 68.4108 24.7206C67.9462 25.417 64.8102 23.444 64.8102 23.444Z" fill="#D1C661"/>
<path d="M45.5297 23.328C45.6459 21.7031 44.136 22.2834 44.136 22.2834C44.949 23.2119 43.6714 25.417 43.6714 25.417C43.6714 25.417 45.4136 25.0688 45.5297 23.328Z" fill="#D1C661"/>
</g>
<defs>
<clipPath id="clip0">
<rect width="82" height="86" fill="white"/>
</clipPath>
</defs>
</svg>
